{
  "asset": {
    "version": "2.0",
    "generator": "THREE.GLTFExporter"
  },
  "scenes": [
    {
      "nodes": [
        40
      ]
    }
  ],
  "scene": 0,
  "nodes": [
    {
      "rotation": [
        -0.4747999906539917,
        0.4740999937057495,
        -0.5238999724388123,
        0.5246999859809875
      ],
      "translation": [
        65.99980163574219,
        0,
        -53.00030136108398
      ],
      "name": "Bone.4"
    },
    {
      "rotation": [
        -0.4747999906539917,
        0.4740999937057495,
        -0.5238999724388123,
        0.5246999859809875
      ],
      "translation": [
        65.99980163574219,
        0,
        -53.00030136108398
      ],
      "name": "Bone.5"
    },
    {
      "translation": [
        52,
        0,
        0
      ],
      "name": "Bone.11"
    },
    {
      "translation": [
        65,
        0,
        0
      ],
      "name": "Bone.10",
      "children": [
        2
      ]
    },
    {
      "translation": [
        74,
        0,
        0
      ],
      "name": "Bone.9",
      "children": [
        3
      ]
    },
    {
      "translation": [
        71,
        0,
        0.00009999999747378752
      ],
      "name": "Bone.8",
      "children": [
        4
      ]
    },
    {
      "name": "Bone.7",
      "children": [
        5
      ]
    },
    {
      "rotation": [
        0,
        0.6822999715805054,
        0,
        0.7311000227928162
      ],
      "translation": [
        137,
        0,
        -52.0005989074707
      ],
      "name": "Bone.6",
      "children": [
        6
      ]
    },
    {
      "rotation": [
        -0.4821000099182129,
        0.4821000099182129,
        -0.5167999863624573,
        0.5178999900817871
      ],
      "translation": [
        -3.999799966812134,
        38,
        63
      ],
      "name": "Bone.12"
    },
    {
      "rotation": [
        -0.4821000099182129,
        0.4821000099182129,
        -0.5167999863624573,
        0.5178999900817871
      ],
      "translation": [
        93.00060272216797,
        0,
        128
      ],
      "name": "Bone.13"
    },
    {
      "rotation": [
        -0.4821000099182129,
        0.4821000099182129,
        -0.5167999863624573,
        0.5178999900817871
      ],
      "translation": [
        -3.999799966812134,
        -38,
        63
      ],
      "name": "Bone.14"
    },
    {
      "translation": [
        185.99999999999997,
        0,
        -0.0008999999845400453
      ],
      "name": "Bone.3",
      "children": [
        0,
        1,
        7,
        8,
        9,
        10
      ]
    },
    {
      "translation": [
        137,
        -0.00019999999494757503,
        0.0017999999690800905
      ],
      "name": "Bone.18"
    },
    {
      "rotation": [
        -0.0006000000284984708,
        0.025299999862909317,
        -0.02449999935925007,
        0.9994000196456909
      ],
      "translation": [
        106,
        -0.00019999999494757503,
        0.0007999999797903001
      ],
      "name": "Bone.17",
      "children": [
        12
      ]
    },
    {
      "rotation": [
        -0.13930000364780426,
        0.6481999754905701,
        -0.15729999542236328,
        0.7318999767303467
      ],
      "name": "Bone.16",
      "children": [
        13
      ]
    },
    {
      "rotation": [
        0,
        0.707099974155426,
        0,
        0.707099974155426
      ],
      "translation": [
        130,
        -82.99999999999999,
        -16.000600814819336
      ],
      "name": "Bone.15",
      "children": [
        14
      ]
    },
    {
      "rotation": [
        -0.5120999813079834,
        -0.5120999813079834,
        0.4875999987125397,
        0.4875999987125397
      ],
      "translation": [
        40.00019836425781,
        0,
        -15.999500274658203
      ],
      "name": "Bone.39"
    },
    {
      "translation": [
        137,
        0.00019999999494757503,
        0.0017999999690800905
      ],
      "name": "Bone.22",
      "children": [
        16
      ]
    },
    {
      "rotation": [
        0.0005000000237487257,
        0.025299999862909317,
        0.0215000007301569,
        0.9994000196456909
      ],
      "translation": [
        106,
        -0.00019999999494757503,
        0.000699999975040555
      ],
      "name": "Bone.21",
      "children": [
        17
      ]
    },
    {
      "rotation": [
        0.13930000364780426,
        0.6481999754905701,
        0.15729999542236328,
        0.7318999767303467
      ],
      "name": "Bone.20",
      "children": [
        18
      ]
    },
    {
      "rotation": [
        0,
        0.707099974155426,
        0,
        0.707099974155426
      ],
      "translation": [
        130,
        82.99999999999999,
        -16.000600814819336
      ],
      "name": "Bone.19",
      "children": [
        19
      ]
    },
    {
      "rotation": [
        -0.4821000099182129,
        0.4821000099182129,
        -0.5167999863624573,
        0.5178999900817871
      ],
      "translation": [
        48.99980163574219,
        0,
        -53.00019836425781
      ],
      "name": "Bone.23"
    },
    {
      "rotation": [
        -0.4821000099182129,
        0.4821000099182129,
        -0.5167999863624573,
        0.5178999900817871
      ],
      "translation": [
        18.00029945373535,
        82,
        52.999900817871094
      ],
      "name": "Bone.24"
    },
    {
      "rotation": [
        -0.4821000099182129,
        0.4821000099182129,
        -0.5167999863624573,
        0.5178999900817871
      ],
      "translation": [
        18.00029945373535,
        -82.99999999999999,
        52.999900817871094
      ],
      "name": "Bone.25"
    },
    {
      "rotation": [
        0,
        0.03370000049471855,
        0,
        0.9994000196456909
      ],
      "translation": [
        63,
        0,
        -0.0005000000237487257
      ],
      "name": "Bone.2",
      "children": [
        11,
        15,
        20,
        21,
        22,
        23
      ]
    },
    {
      "translation": [
        253,
        -0.00039999998989515007,
        0.002300000051036477
      ],
      "name": "Bone.29"
    },
    {
      "rotation": [
        0,
        -0.04450000077486038,
        0,
        0.9990000128746033
      ],
      "translation": [
        227,
        0,
        0.004600000102072954
      ],
      "name": "Bone.28",
      "children": [
        25
      ]
    },
    {
      "rotation": [
        -0.010200000368058681,
        0.6966999769210815,
        -0.010499999858438969,
        0.7172999978065491
      ],
      "name": "Bone.27",
      "children": [
        26
      ]
    },
    {
      "rotation": [
        0,
        0.707099974155426,
        0,
        0.707099974155426
      ],
      "translation": [
        -32,
        -44,
        -2.9997000694274902
      ],
      "name": "Bone.26",
      "children": [
        27
      ]
    },
    {
      "translation": [
        253,
        0.00009999999747378752,
        0.002300000051036477
      ],
      "name": "Bone.33"
    },
    {
      "rotation": [
        0,
        -0.04450000077486038,
        0,
        0.9990000128746033
      ],
      "translation": [
        227,
        0,
        0.004600000102072954
      ],
      "name": "Bone.32",
      "children": [
        29
      ]
    },
    {
      "rotation": [
        0.010200000368058681,
        0.6966999769210815,
        0.010499999858438969,
        0.7172999978065491
      ],
      "name": "Bone.31",
      "children": [
        30
      ]
    },
    {
      "rotation": [
        0,
        0.707099974155426,
        0,
        0.707099974155426
      ],
      "translation": [
        -32,
        44,
        -2.9997000694274902
      ],
      "name": "Bone.30",
      "children": [
        31
      ]
    },
    {
      "rotation": [
        -0.4991999864578247,
        0.4991999864578247,
        -0.5001999735832214,
        0.5012999773025513
      ],
      "translation": [
        -36.9995002746582,
        58,
        60.000301361083984
      ],
      "name": "Bone.34"
    },
    {
      "rotation": [
        -0.4991999864578247,
        0.4991999864578247,
        -0.5001999735832214,
        0.5012999773025513
      ],
      "translation": [
        -36.0005989074707,
        50,
        -76.99970245361328
      ],
      "name": "Bone.35"
    },
    {
      "rotation": [
        -0.4991999864578247,
        0.4991999864578247,
        -0.5001999735832214,
        0.5012999773025513
      ],
      "translation": [
        -36.0005989074707,
        -50,
        -76.99970245361328
      ],
      "name": "Bone.36"
    },
    {
      "rotation": [
        -0.4991999864578247,
        0.4991999864578247,
        -0.5001999735832214,
        0.5012999773025513
      ],
      "translation": [
        -36.9995002746582,
        -58,
        60.000301361083984
      ],
      "name": "Bone.37"
    },
    {
      "rotation": [
        -0.4991999864578247,
        0.4991999864578247,
        -0.5001999735832214,
        0.5012999773025513
      ],
      "translation": [
        -35.9994010925293,
        0,
        69.00029754638672
      ],
      "name": "Bone.38"
    },
    {
      "rotation": [
        0,
        -0.70660001039505,
        0,
        0.7075999975204468
      ],
      "name": "Bone.1",
      "children": [
        24,
        28,
        32,
        33,
        34,
        35,
        36,
        37
      ]
    },
    {
      "rotation": [
        -0.5004000067710876,
        0.49959999322891235,
        0.49959999322891235,
        0.5004000067710876
      ],
      "translation": [
        0,
        5.820000171661377,
        0.05999999865889549
      ],
      "scale": [
        0.009999999776482582,
        0.009999999776482582,
        0.009999999776482582
      ],
      "name": "Bone.0",
      "children": [
        38
      ]
    },
    {
      "scale": [
        0.5,
        0.5,
        0.5
      ],
      "mesh": 0,
      "children": [
        39
      ],
      "skin": 0
    }
  ],
  "bufferViews": [
    {
      "buffer": 0,
      "byteOffset": 0,
      "byteLength": 4500,
      "target": 34962,
      "byteStride": 12
    },
    {
      "buffer": 0,
      "byteOffset": 4500,
      "byteLength": 4500,
      "target": 34962,
      "byteStride": 12
    },
    {
      "buffer": 0,
      "byteOffset": 9000,
      "byteLength": 4500,
      "target": 34962,
      "byteStride": 12
    },
    {
      "buffer": 0,
      "byteOffset": 13500,
      "byteLength": 3000,
      "target": 34962,
      "byteStride": 8
    },
    {
      "buffer": 0,
      "byteOffset": 16500,
      "byteLength": 3000,
      "target": 34962,
      "byteStride": 8
    },
    {
      "buffer": 0,
      "byteOffset": 19500,
      "byteLength": 6000,
      "target": 34962,
      "byteStride": 16
    },
    {
      "buffer": 0,
      "byteOffset": 25500,
      "byteLength": 752,
      "target": 34963
    },
    {
      "buffer": 0,
      "byteOffset": 26252,
      "byteLength": 2560
    }
  ],
  "buffers": [
    {
      "byteLength": 28812,
      "uri": "data:application/octet-stream;base64,"
    }
  ],
  "accessors": [
    {
      "bufferView": 0,
      "componentType": 5126,
      "count": 375,
      "max": [
        -1.7139400243759155,
        5.814899921417236,
        0.522471010684967
      ],
      "min": [
        -2.397130012512207,
        4.620259761810303,
        -2.2375099658966064
      ],
      "type": "VEC3"
    },
    {
      "bufferView": 1,
      "componentType": 5126,
      "count": 375,
      "max": [
        0.9818630218505859,
        0.9987540245056152,
        0.8921099901199341
      ],
      "min": [
        -0.9888659715652466,
        -0.9996259808540344,
        -0.8992239832878113
      ],
      "type": "VEC3"
    },
    {
      "bufferView": 2,
      "componentType": 5126,
      "count": 375,
      "max": [
        1,
        1,
        1
      ],
      "min": [
        1,
        1,
        1
      ],
      "type": "VEC3"
    },
    {
      "bufferView": 3,
      "componentType": 5126,
      "count": 375,
      "max": [
        0.9726560115814209,
        0.9941179752349854
      ],
      "min": [
        0.0039059999398887157,
        0.05294099822640419
      ],
      "type": "VEC2"
    },
    {
      "bufferView": 4,
      "componentType": 5123,
      "count": 375,
      "max": [
        23,
        0,
        0,
        0
      ],
      "min": [
        23,
        0,
        0,
        0
      ],
      "type": "VEC4"
    },
    {
      "bufferView": 5,
      "componentType": 5126,
      "count": 375,
      "max": [
        1,
        0,
        0,
        0
      ],
      "min": [
        1,
        0,
        0,
        0
      ],
      "type": "VEC4"
    },
    {
      "bufferView": 6,
      "componentType": 5123,
      "count": 375,
      "max": [
        374
      ],
      "min": [
        0
      ],
      "type": "SCALAR"
    },
    {
      "bufferView": 7,
      "componentType": 5126,
      "count": 40,
      "max": [
        100.00016021728516,
        0.13581864535808563,
        44.95055389404297,
        0,
        100.00004577636719,
        44.9063835144043,
        100.0001449584961,
        0,
        1.9895975589752197,
        99.87557220458984,
        99.99993133544922,
        0,
        669.3257446289062,
        419.943115234375,
        -6.887394428253174,
        1
      ],
      "min": [
        -89.32743072509766,
        -100.0000228881836,
        -1.9256004095077515,
        0,
        -99.91950988769531,
        -45.45366287231445,
        0.15247401595115662,
        0,
        -100.0000228881836,
        -100.0001220703125,
        -99.97994995117188,
        0,
        -829.0579833984375,
        -416.5713195800781,
        -963.6448364257812,
        1
      ],
      "type": "MAT4"
    }
  ],
  "materials": [
    {
      "pbrMetallicRoughness": {
        "baseColorFactor": [
          0.6392156862745098,
          0.6392156862745098,
          0.6392156862745098,
          1
        ],
        "metallicFactor": 0,
        "roughnessFactor": 0.9,
        "baseColorTexture": {
          "index": 0
        }
      },
      "extensions": {
        "KHR_materials_unlit": {}
      },
      "alphaMode": "MASK",
      "alphaCutoff": 0.05,
      "name": "CCMat003"
    }
  ],
  "textures": [
    {
      "sampler": 0,
      "source": 0
    }
  ],
  "samplers": [
    {
      "magFilter": 9728,
      "minFilter": 9728
    }
  ],
  "images": [
    {
      "mimeType": "image/png",
      "uri": "dagger3.png"
    }
  ],
  "meshes": [
    {
      "primitives": [
        {
          "mode": 4,
          "attributes": {
            "POSITION": 0,
            "NORMAL": 1,
            "COLOR_0": 2,
            "TEXCOORD_0": 3,
            "JOINTS_0": 4,
            "WEIGHTS_0": 5
          },
          "indices": 6,
          "material": 0
        }
      ]
    }
  ],
  "skins": [
    {
      "inverseBindMatrices": 7,
      "joints": [
        39,
        38,
        24,
        11,
        0,
        1,
        7,
        6,
        5,
        4,
        3,
        2,
        8,
        9,
        10,
        15,
        14,
        13,
        12,
        20,
        19,
        18,
        17,
        16,
        21,
        22,
        23,
        28,
        27,
        26,
        25,
        32,
        31,
        30,
        29,
        33,
        34,
        35,
        36,
        37
      ],
      "skeleton": 39
    }
  ],
  "extensionsUsed": [
    "KHR_materials_unlit"
  ]
}